<svg xmlns="http://www.w3.org/2000/svg" viewBox="0 0 420 420" role="img" aria-labelledby="title desc">
  <title id="title">Rumo ao Esporte</title>
  <desc id="desc">Logo provisória da Rumo ao Esporte em verde.</desc>
  <rect width="420" height="420" fill="#ffffff"/>
  <circle cx="210" cy="164" r="96" fill="#007d2f"/>
  <circle cx="210" cy="164" r="70" fill="#ffffff"/>
  <path d="M141 171c24-36 53-54 88-54 24 0 43 7 58 21-17-7-34-8-52-3-33 9-61 32-94 36Z" fill="#007d2f"/>
  <path d="M156 210c36 9 73 9 111 0 2 13-1 25-10 35-11 13-27 20-47 20-19 0-35-7-47-20-9-10-12-22-7-35Z" fill="#007d2f"/>
  <text x="210" y="318" text-anchor="middle" font-family="Arial, Helvetica, sans-serif" font-size="34" font-weight="800" fill="#007d2f">ARENA</text>
  <text x="210" y="356" text-anchor="middle" font-family="Arial, Helvetica, sans-serif" font-size="30" font-weight="700" fill="#1f2937">SIMONÉSIA</text>
</svg>
